<?xml version="1.0"?>
<svg xmlns="http://www.w3.org/2000/svg" xmlns:xlink="http://www.w3.org/1999/xlink" version="1.1" id="Layer_1" x="0px" y="0px" viewBox="0 0 512 512" style="enable-background:new 0 0 512 512;" xml:space="preserve" width="512px" height="512px" class=""><g transform="matrix(0.988022 0 0 0.988022 3.0664 3.0664)"><path style="fill:#1FC11F" d="M149.404,266.065C220.096,288.547,256,374.073,256,374.073s-78.711,49.076-149.404,26.594  C35.904,378.185,0,292.658,0,292.658S78.711,243.583,149.404,266.065z" data-original="#C3EA21" class="" data-old_color="#01FF00"/><path style="fill:#6EC641" d="M234.332,223.876C277.876,283.933,256,374.073,256,374.073s-92.475-7.23-136.019-67.287  S98.313,156.589,98.313,156.589S190.788,163.82,234.332,223.876z" data-original="#8ADB53" class="active-path" data-old_color="#6FC642"/><path style="fill:#10A327" d="M362.597,266.065C291.904,288.547,256,374.073,256,374.073s78.711,49.076,149.404,26.594  C476.096,378.185,512,292.658,512,292.658S433.289,243.583,362.597,266.065z" data-original="#206B34" class="" data-old_color="#8ADB53"/><path style="fill:#3AC63A" d="M277.668,223.876C234.124,283.933,256,374.073,256,374.073s92.475-7.23,136.019-67.287  s21.668-150.197,21.668-150.197S321.212,163.82,277.668,223.876z" data-original="#369151" class="" data-old_color="#39C639"/><path style="fill:#8ADB53" d="M326.623,239.756c0,74.181-70.623,134.317-70.623,134.317s-70.623-60.136-70.623-134.317  S256,105.439,256,105.439S326.623,165.575,326.623,239.756z" data-original="#4FC16E" class="" data-old_color="#10A327"/></g> </svg>
